<svg xmlns="http://www.w3.org/2000/svg" width="430" height="83" viewBox="0 0 430 83">
  <metadata><?xpacket begin="﻿" id="W5M0MpCehiHzreSzNTczkc9d"?>
<x:xmpmeta xmlns:x="adobe:ns:meta/" x:xmptk="Adobe XMP Core 5.6-c140 79.160451, 2017/05/06-01:08:21        ">
   <rdf:RDF xmlns:rdf="http://www.w3.org/1999/02/22-rdf-syntax-ns#">
      <rdf:Description rdf:about=""/>
   </rdf:RDF>
</x:xmpmeta>
                                                                                                    
                                                                                                    
                                                                                                    
                                                                                                    
                                                                                                    
                                                                                                    
                                                                                                    
                                                                                                    
                                                                                                    
                                                                                                    
                                                                                                    
                                                                                                    
                                                                                                    
                                                                                                    
                                                                                                    
                                                                                                    
                                                                                                    
                                                                                                    
                                                                                                    
                                                                                                    
                           
<?xpacket end="w"?></metadata>
<defs>
    <style>
      .cls-1 {
        fill: #fff;
        fill-rule: evenodd;
      }
    </style>
  </defs>
  <path id="形狀_1" data-name="形狀 1" class="cls-1" d="M1441.03,219.608c-0.26,6.3-6.28,10.511-15.77,10.511-12.52,0-15.89-4.676-15.89-9.153,0-4.2,3.41-6.386,6.74-6.711l0.44,0.862a6.354,6.354,0,0,0-2.45,5.278c0,5.184,6.17,7.062,11.26,7.062,6.71,0,11.11-2.373,11.11-7.123,0-3.243-3.35-5.43-9.28-6.417-3.78-.631-6-1.125-8.67-1.7-2.26-.485-4.3-1.826-4.31-4.136a2.913,2.913,0,0,1,2.3-3.166,2.751,2.751,0,0,0,2.25,2.812c1.58,0.435,5.96,1.169,8.84,1.712,9.01,1.7,13.68,4.063,13.43,10.166m-16.09-14.814c7.69,0,13.92-4.872,13.92-12.085a11.676,11.676,0,0,0-7.46-10.79c4.14-.327,6.21-2.187,6.35-4.361,0.13-1.939-1.14-3.191-3.34-3.207,0.45,3.73-4.06,6.179-9.47,6.275h-0.04c-0.1,0-.19,0-0.29,0l0.01,0c-7.54.133-13.6,5.044-13.6,12.075,0,7.213,6.23,12.085,13.92,12.085m0-21.732c5.11,0,8.63,3.943,8.63,9.647s-3.52,9.65-8.63,9.65-8.63-3.943-8.63-9.65,3.52-9.647,8.63-9.647m93.72,20.488c-0.5,3.981-4.18,6.227-8.81,6.227-6.2,0-10.69-4.279-11.17-11.019a25.889,25.889,0,0,0,4.04.33c11.01,0,18.82-3.141,18.64-11.2-0.1-4.523-4.36-7.546-10.27-7.546-9.06,0-17.8,6.161-17.8,17.119,0,4.884,1.62,8.523,4.18,10.965,3.4,3.244,7.52,4.189,12.09,4.189,6.28,0,11.5-2.813,11.91-6.3,0.22-1.752-.75-2.831-2.81-2.761m-8.53-20.5c3.94,0,6.31,2,6.31,5.3,0,5.785-5.24,8.176-13.67,8.176a20.569,20.569,0,0,1-4.14-.394c0.29-7.412,5.18-13.078,11.5-13.078m-28.76-1.886c-0.12,1.31-.19,4.907-0.24,6.07,1.85-4.6,5.18-6.779,8.68-6.779,2.68,0,4.34,1.369,4.41,3.284a2.505,2.505,0,0,1-2.25,2.8,3.368,3.368,0,0,0-3.35-2.254c-3.24,0-5.89,2.527-6.75,7.426a79.215,79.215,0,0,0-.54,11.263c0,3.272.11,6.558,0.28,8.9h-5.39c0.16-2.346.27-5.632,0.27-8.9v-12.9c0-3.274-.11-6.559-0.27-8.906l5.15,0m-84.02,0c-0.11,1.31-.19,4.907-0.24,6.07,1.85-4.6,5.18-6.779,8.68-6.779,2.68,0,4.34,1.369,4.41,3.284a2.505,2.505,0,0,1-2.25,2.8,3.36,3.36,0,0,0-3.35-2.254c-3.24,0-5.89,2.527-6.75,7.426a79.215,79.215,0,0,0-.54,11.263c0,3.272.11,6.558,0.28,8.9h-5.39c0.16-2.346.28-5.632,0.28-8.9v-12.9c0-3.274-.12-6.559-0.28-8.906l5.15,0m-68.66,31.278-16.27-30.883-1.88,23.838a34.638,34.638,0,0,0,.06,6.479H1306c0.47-2.434.81-4.924,0.98-6.521l3.3-34.59h2l18.37,34.845,18.27-34.846,1.87,0,2.91,35.965a25.634,25.634,0,0,0,.94,5.142h-5.99a36.4,36.4,0,0,0-.07-5.152l-2.05-25.075-15.82,30.8h-2.02m216.93-3.539a10.871,10.871,0,0,1-8.22,3.611c-4.93,0-7.33-2.642-7.2-9.18,0.04-2.166.16-10.116,0.16-10.116,0.06-2.1.02-8.756,0.02-8.756h-5.75l1.42-3.333h4.39v-2.64c0-2.077-.03-5.408-0.12-6.052l5.33-2.443c-0.27,2.765-.41,7.534-0.41,11.135h9.5l-1.46,3.337h-8.04v18.3c0,5.069.94,6.531,3.5,6.7,2.11,0.138,4.23-1.323,5.48-2.757l1.4,2.2m-72.54,1.035c-2.5.193-3.95-.452-3.95-4.133V192.4c0-3.564-.51-5.649-2.06-7.731-2.2-2.9-5.51-4.236-10.59-4.236-5.69,0-11.58,2.316-11.8,6.6-0.09,1.9,1.43,3.089,3.78,2.758,0.01-2.784,2-6.7,7.93-6.7,5.47,0,7.86,3.022,7.86,9.134-17.38-.441-21.96,5.762-21.96,11.224,0,5.917,4.56,9.16,11.81,9.16a12.646,12.646,0,0,0,10.29-4.855c0.49,3.272,2.54,4.745,5.39,4.745a9.865,9.865,0,0,0,2.95-.455l0.35-2.1m-8.83-15.275v4.987c0,5.8-4.01,10.257-9.19,10.257-4.62,0-7.54-2.659-7.32-6.943,0.28-5.476,5.15-8.425,16.51-8.3m-75.62,15.275c-2.51.193-3.95-.452-3.95-4.133V192.4c0-3.564-.51-5.649-2.06-7.731-2.2-2.9-5.51-4.236-10.59-4.236-5.69,0-11.58,2.316-11.8,6.6-0.09,1.9,1.43,3.089,3.78,2.758,0.01-2.784,2-6.7,7.93-6.7,5.47,0,7.86,3.022,7.86,9.134-17.38-.441-21.96,5.762-21.96,11.224,0,5.917,4.56,9.16,11.8,9.16a12.665,12.665,0,0,0,10.3-4.855c0.49,3.272,2.54,4.745,5.38,4.745a9.881,9.881,0,0,0,2.96-.455l0.35-2.1m-8.83-15.275v4.987c0,5.8-4.01,10.257-9.19,10.257-4.62,0-7.54-2.659-7.32-6.943,0.28-5.476,5.15-8.425,16.51-8.3m335.67,8.619c0.03,4.244,3.28,6.632,7.83,6.632,3.68,0,7.48-1.587,7.51-5.572,0.02-3.006-1.69-4.585-5.91-5.717-0.65-.173-4.27-1.11-5.27-1.37-3.98-1.034-7.41-3.232-7.03-8.379,0.45-5.96,6.43-8.457,11.98-8.457,5.65,0,10.23,1.562,10.66,5.231,0.18,1.577-.82,3.3-3.72,3.091-0.2-3.468-2.92-5.557-7.2-5.557-3.08,0-6.78,1.286-6.8,4.9-0.02,2.22,1.19,3.815,4.94,4.863,0.97,0.27,4.88,1.312,5.44,1.451,6.48,1.6,8.27,5.141,8.09,9.155-0.31,6.765-7.17,9.115-12.94,9.115-7.71,0-11.49-2.261-11.76-5.777-0.19-2.422,1.47-4.165,4.18-3.6m-78.09,6.627c-2.51.194-3.95-.452-3.95-4.132V192.376c0-3.562-.51-5.648-2.07-7.729-2.19-2.9-5.5-4.239-10.58-4.239-5.69,0-11.58,2.318-11.8,6.6-0.09,1.9,1.43,3.089,3.77,2.759,0.02-2.786,2.01-6.7,7.94-6.7,5.47,0,7.86,3.019,7.86,9.134-17.38-.441-21.96,5.761-21.96,11.223,0,5.917,4.56,9.162,11.8,9.162a12.685,12.685,0,0,0,10.3-4.856c0.49,3.272,2.54,4.745,5.38,4.745a9.913,9.913,0,0,0,2.96-.455l0.35-2.1m-8.83-15.275v4.988c0,5.8-4.02,10.257-9.2,10.257-4.61,0-7.53-2.658-7.31-6.942,0.28-5.478,5.14-8.426,16.51-8.3m-63.34,8.671c0,6.463-.25,7.959-0.51,8.985,2.43-.163,8.16-0.078,9.94.016s4.52,0.207,6.26.207c7.43,0,12.76-2.194,16.75-6.068,3.77-3.661,5.58-8.838,5.58-14.91s-1.81-11.251-5.58-14.91c-3.99-3.874-9.32-6.069-16.75-6.069-1.74,0-4.48.111-6.26,0.2s-7.51.177-9.94,0.015c0.26,1.026.51,2.524,0.51,8.987V203.31m5.17-18.274c0-3.593.07-7.282,0.18-9.762a1.275,1.275,0,0,1,1.16-1.493,62.192,62.192,0,0,1,8.31-.584c11.16,0,17.45,7.107,17.45,18.343s-6.29,18.343-17.45,18.343a39.365,39.365,0,0,1-8.16-.706,1.618,1.618,0,0,1-1.32-1.682c-0.12-2.481-.17-5.858-0.17-9.453V185.036Zm111.45-3.968c0-3.6.08-8.3,0.36-11.069l-5.33,2.443c0.09,0.644.11,3.976,0.11,6.052l0.02,33.231,1.49,0.477a5.113,5.113,0,0,1,4.4-.72,25.8,25.8,0,0,0,6.99,1.076,17.962,17.962,0,0,0,12.79-4.9c3.27-3.247,4.88-7.909,4.88-13.021,0-8.743-5.63-14.37-14.52-14.217a13.194,13.194,0,0,0-11.19,5.988v-5.336m8.07,28.813c-5.41,0-8.11-2.622-8.11-7.929v-4.42a22.293,22.293,0,0,1,.67-6.048c1.3-4.952,5.13-7.962,9.97-7.962,6.08,0,9.47,4.377,9.59,11.605,0.16,9.121-4.2,14.754-12.12,14.754m-43.75-28.813c0-3.6.08-8.3,0.36-11.069l-5.33,2.443c0.09,0.644.11,3.976,0.11,6.052l0.01,33.231,1.5,0.477a5.113,5.113,0,0,1,4.4-.72,25.8,25.8,0,0,0,6.99,1.076,17.962,17.962,0,0,0,12.79-4.9c3.27-3.247,4.88-7.909,4.88-13.021,0-8.743-5.63-14.37-14.52-14.217a13.182,13.182,0,0,0-11.19,5.988v-5.336m8.07,28.813c-5.41,0-8.11-2.622-8.11-7.929v-4.42a22.293,22.293,0,0,1,.67-6.048c1.3-4.952,5.13-7.962,9.97-7.962,6.08,0,9.47,4.377,9.59,11.605,0.16,9.121-4.2,14.754-12.12,14.754M1468.65,238.6h1.91v12.261h6.46v1.787h-8.37V238.6ZM1488.45,253a7.616,7.616,0,0,1-2.96-.565,7.008,7.008,0,0,1-2.32-1.558,7.338,7.338,0,0,1-1.51-2.342,8.149,8.149,0,0,1,0-5.834,7.329,7.329,0,0,1,1.51-2.34,6.978,6.978,0,0,1,2.32-1.558,8.023,8.023,0,0,1,5.92,0,6.781,6.781,0,0,1,2.32,1.558,7.163,7.163,0,0,1,1.51,2.34,8.01,8.01,0,0,1,0,5.834,7.172,7.172,0,0,1-1.51,2.342,6.809,6.809,0,0,1-2.32,1.558,7.58,7.58,0,0,1-2.96.565m0-1.785a5.132,5.132,0,0,0,3.86-1.648,5.313,5.313,0,0,0,1.07-1.776,6.4,6.4,0,0,0,0-4.344,5.318,5.318,0,0,0-1.07-1.777,5.136,5.136,0,0,0-1.67-1.2,5.575,5.575,0,0,0-4.37,0,5.19,5.19,0,0,0-2.75,2.978,6.4,6.4,0,0,0,0,4.344,5.15,5.15,0,0,0,4.93,3.424m13.28-12.62h2.51l7.75,11.547h0.04V238.6h1.91v14.048h-2.43l-7.83-11.549h-0.04v11.549h-1.91V238.6Zm19.4,0h4.91a9.136,9.136,0,0,1,2.62.335,6.993,6.993,0,0,1,1.95.9,5.869,5.869,0,0,1,1.37,1.3,7.094,7.094,0,0,1,.86,1.509,6.981,6.981,0,0,1,.46,1.548,8.391,8.391,0,0,1,.14,1.428,7.089,7.089,0,0,1-.5,2.61,6.547,6.547,0,0,1-1.47,2.241,7.24,7.24,0,0,1-2.41,1.579,8.661,8.661,0,0,1-3.33.595h-4.6V238.6m1.91,12.26h2.41a7.778,7.778,0,0,0,2.29-.327,5.478,5.478,0,0,0,1.9-.982,4.529,4.529,0,0,0,1.29-1.637,5.16,5.16,0,0,0,.48-2.292,6.62,6.62,0,0,0-.22-1.577,4.676,4.676,0,0,0-.82-1.716,5.018,5.018,0,0,0-1.68-1.38,5.988,5.988,0,0,0-2.79-.565h-2.86v10.476ZM1545.69,253a7.666,7.666,0,0,1-2.97-.565,6.865,6.865,0,0,1-2.31-1.558,7.172,7.172,0,0,1-1.51-2.342,8.01,8.01,0,0,1,0-5.834,7.163,7.163,0,0,1,1.51-2.34,6.836,6.836,0,0,1,2.31-1.558,8.049,8.049,0,0,1,5.93,0,6.836,6.836,0,0,1,2.31,1.558,7.188,7.188,0,0,1,1.52,2.34,8.149,8.149,0,0,1,0,5.834,7.2,7.2,0,0,1-1.52,2.342,6.865,6.865,0,0,1-2.31,1.558,7.616,7.616,0,0,1-2.96.565m0-1.785a5.165,5.165,0,0,0,4.93-3.424,6.56,6.56,0,0,0,0-4.344,5.263,5.263,0,0,0-8.79-1.777,5.318,5.318,0,0,0-1.07,1.777,6.4,6.4,0,0,0,0,4.344,5.313,5.313,0,0,0,1.07,1.776,5.132,5.132,0,0,0,3.86,1.648m13.28-12.62h2.5l7.75,11.547h0.05V238.6h1.9v14.048h-2.42l-7.84-11.549h-0.04v11.549h-1.9V238.6Z" transform="translate(-1306 -170)"/>
</svg>
